<?xml version="1.0" encoding="UTF-8"?>
<svg width="24px" height="24px" viewBox="0 0 24 24" version="1.1" xmlns="http://www.w3.org/2000/svg" xmlns:xlink="http://www.w3.org/1999/xlink">
    <title>Icons / 24x24 / Black / settings</title>
    <g id="Icons-/-24x24-/-Black-/-settings" stroke="none" stroke-width="1" fill="none" fill-rule="evenodd">
        <polygon id="Path" points="0 0 24 0 24 24 0 24"></polygon>
        <path d="M10.325,4.317 C10.751,2.561 13.249,2.561 13.675,4.317 C13.804643,4.8520592 14.1820337,5.29302424 14.6906516,5.50374581 C15.1992694,5.71446738 15.7779411,5.66960126 16.248,5.383 C17.791,4.443 19.558,6.209 18.618,7.753 C18.3318125,8.2228539 18.2870546,8.80108107 18.497528,9.30937917 C18.7080013,9.81767726 19.1484288,10.1950015 19.683,10.325 C21.439,10.751 21.439,13.249 19.683,13.675 C19.1479408,13.804643 18.7069758,14.1820337 18.4962542,14.6906516 C18.2855326,15.1992694 18.3303987,15.7779411 18.617,16.248 C19.557,17.791 17.791,19.558 16.247,18.618 C15.7771461,18.3318125 15.1989189,18.2870546 14.6906208,18.497528 C14.1823227,18.7080013 13.8049985,19.1484288 13.675,19.683 C13.249,21.439 10.751,21.439 10.325,19.683 C10.195357,19.1479408 9.81796626,18.7069758 9.30934844,18.4962542 C8.80073062,18.2855326 8.22205892,18.3303987 7.752,18.617 C6.209,19.557 4.442,17.791 5.382,16.247 C5.66818753,15.7771461 5.71294539,15.1989189 5.50247203,14.6906208 C5.29199868,14.1823227 4.85157121,13.8049985 4.317,13.675 C2.561,13.249 2.561,10.751 4.317,10.325 C4.8520592,10.195357 5.29302424,9.81796626 5.50374581,9.30934844 C5.71446738,8.80073062 5.66960126,8.22205892 5.383,7.752 C4.443,6.209 6.209,4.442 7.753,5.382 C8.753,5.99 10.049,5.452 10.325,4.317 Z" id="Path" stroke="#000000" stroke-linecap="round" stroke-linejoin="round"></path>
        <circle id="Bg" stroke="#000000" stroke-linecap="round" stroke-linejoin="round" cx="12" cy="12" r="3"></circle>
    </g>
</svg>