<?xml version="1.0" encoding="UTF-8"?>
<svg width="140px" height="140px" viewBox="0 0 140 140" version="1.1" xmlns="http://www.w3.org/2000/svg" xmlns:xlink="http://www.w3.org/1999/xlink">
    <title>Icons / 48x48 / Light / quottie</title>
    <defs>
        <filter x="-129.2%" y="-129.2%" width="358.3%" height="358.3%" filterUnits="objectBoundingBox" id="filter-1">
            <feOffset dx="0" dy="16" in="SourceAlpha" result="shadowOffsetOuter1"></feOffset>
            <feGaussianBlur stdDeviation="8" in="shadowOffsetOuter1" result="shadowBlurOuter1"></feGaussianBlur>
            <feColorMatrix values="0 0 0 0 0.317647059   0 0 0 0 0.219607843   0 0 0 0 0.933333333  0 0 0 0.16 0" type="matrix" in="shadowBlurOuter1" result="shadowMatrixOuter1"></feColorMatrix>
            <feMerge>
                <feMergeNode in="shadowMatrixOuter1"></feMergeNode>
                <feMergeNode in="SourceGraphic"></feMergeNode>
            </feMerge>
        </filter>
    </defs>
    <g id="iPhone-X" stroke="none" stroke-width="1" fill="none" fill-rule="evenodd">
        <g id="Screen-01" transform="translate(-118.000000, -336.000000)">
            <g id="Card" filter="url(#filter-1)" transform="translate(164.000000, 382.000000)">
                <g id="Icons-/-48x48-/-Light-/-quottie">
                    <rect id="Bg" fill="#FFFFFF" opacity="0" x="0" y="0" width="48" height="48"></rect>
                    <g id="Card" transform="translate(8.000000, 12.000000)" stroke="#FFFFFF" stroke-linecap="round" stroke-linejoin="round" stroke-width="4">
                        <path d="M8,4 L8,0 L12,4 L8,4 C3.581722,4 0,7.581722 0,12 C0,16.418278 3.581722,20 8,20 L12,20" id="Path"></path>
                        <path d="M28,8 L28,4 L32,8 L28,8 C23.581722,8 20,11.581722 20,16 C20,20.418278 23.581722,24 28,24 L32,24" id="Path" transform="translate(26.000000, 14.000000) scale(-1, -1) translate(-26.000000, -14.000000) "></path>
                    </g>
                </g>
            </g>
        </g>
    </g>
</svg>